<svg xmlns="http://www.w3.org/2000/svg" viewBox="0 0 153.558 153.558"><g fill="#fcd0a3"><path d="M115.779 80.427c4 0 7.666-3.433 7.666-7.667s-3.666-7.667-7.666-7.667v15.334z"/><path d="M115.779 80.427c4 0 7.666-3.433 7.666-7.667s-3.666-7.667-7.666-7.667v15.334z" opacity=".16"/><path d="M37.779 80.427c-4 0-7.667-3.433-7.667-7.667s3.667-7.667 7.667-7.667v15.334z"/><path d="M37.779 80.427c-4 0-7.667-3.433-7.667-7.667s3.667-7.667 7.667-7.667v15.334z" opacity=".16"/></g><path d="M89.234 150.729H67.929c-17.989 0-32.572-14.583-32.572-32.571V41.667h83.333v79.605c0 16.269-13.188 29.457-29.456 29.457z" fill="#ffde67"/><g fill="#fcd0a3"><path d="M77.024 128.896a3.501 3.501 0 0 1-3.501-3.502v-13.963a3.5 3.5 0 1 1 7.002 0v13.963a3.501 3.501 0 0 1-3.501 3.502z"/><path d="M77.024 115.334c-21.908 0-39.667-17.76-39.667-39.667v-34C37.357 19.759 55.116 2 77.024 2h.001c21.907 0 39.666 17.76 39.666 39.667v34c0 21.907-17.76 39.667-39.667 39.667z"/><path d="M55.344 104.884c-5.892-7.367-7.637-16.08-7.841-25.324-.202-9.158-.266-17.485.294-26.664.543-8.917 2.318-17.642 6.815-25.005C60.796 17.764 71.937 8.209 82.599 2.41A40.027 40.027 0 0 0 76.927 2C55.02 2 37.26 19.759 37.26 41.667v34c0 18.021 12.022 33.227 28.481 38.057-3.943-2.297-7.494-5.212-10.397-8.84z" opacity=".16"/></g><path d="M55.638 91.255c5.626 5.181 13.135 8.348 21.386 8.348 8.25 0 15.76-3.167 21.385-8.348" fill="none" stroke="#6f6f6e" stroke-width=".1" stroke-linecap="round" stroke-linejoin="round" stroke-miterlimit="10"/><path d="M71.837 99.148l1.461 1.849a3.253 3.253 0 0 0 2.55 1.234h2.47c.995 0 1.932-.469 2.529-1.265l1.364-1.818H71.837z" fill="#dc2a2c"/><path d="M77.571 97.063l-.304.309a.363.363 0 0 1-.517.003l-.271-.271a1.864 1.864 0 0 0-2.648.013l-1.994 2.032h2.693c.659 0 1.313.104 1.94.306l.304.099c.216.069.45.065.664-.012l.284-.103a4.874 4.874 0 0 1 1.657-.29h2.834l-2.097-2.097a1.79 1.79 0 0 0-2.545.011z" fill="#e94941"/><g fill="#f296a4"><ellipse transform="rotate(14.631 53.023 75.117)" cx="53.028" cy="75.125" rx="11.974" ry="7.361" opacity=".25"/><ellipse transform="rotate(165.369 100.927 75.124)" cx="100.93" cy="75.125" rx="11.974" ry="7.361" opacity=".25"/></g><path d="M99.791 62.368a2.684 2.684 0 0 0 3.193-1.81c.047-.155-.194-.22-.241-.066a2.427 2.427 0 0 1-2.885 1.635c-.157-.039-.224.202-.067.241z" fill="#67657b"/><path d="M99.631 61.996a2.268 2.268 0 0 0 2.246-2.139c.008-.161-.242-.16-.25 0a2.012 2.012 0 0 1-1.996 1.889c-.162 0-.162.25 0 .25zm.262.692a3.504 3.504 0 0 0 3.065.465c.153-.048.088-.289-.066-.241a3.26 3.26 0 0 1-2.872-.439c-.134-.093-.259.124-.127.215z" fill="#67657b"/><circle cx="96.852" cy="63.63" r="3.333" fill="#67657b"/><circle cx="96.852" cy="63.63" r="3.104" fill="#8e8d9c"/><path fill="#5f5d73" d="M94.247 62.192l1.343.65-1.172-.923 1.265.791-1.066-1.044 1.172.923-.946-1.153 1.065 1.044-.816-1.249.946 1.153-.677-1.329.816 1.249-.529-1.395.676 1.33-.375-1.443.529 1.394-.217-1.475.374 1.443-.055-1.49.216 1.475.106-1.488.055 1.491.266-1.468-.106 1.489.423-1.431-.266 1.468.575-1.377-.424 1.431.721-1.306-.576 1.376.858-1.221-.721 1.306.984-1.12-.858 1.219 1.1-1.007-.985 1.121 1.203-.883-1.1 1.007 1.291-.748-1.204.882 1.365-.603-1.291.747 1.421-.452-1.364.602 1.462-.295-1.422.452 1.486-.137-1.462.296 1.491.024-1.485.137 1.48.186-1.492-.026 1.452.345-1.48-.187 1.405.5-1.451-.344 1.343.648-1.405-.5 1.265.79-1.343-.649 1.172.923-1.265-.791 1.066 1.043-1.172-.922.946 1.152-1.065-1.044.817 1.249-.947-1.153.677 1.329-.816-1.249.529 1.395-.676-1.33.375 1.445-.529-1.396.217 1.476-.375-1.444.056 1.491-.216-1.476-.106 1.488-.055-1.491-.266 1.468.106-1.488-.423 1.43.266-1.468-.575 1.377.424-1.43-.721 1.305.576-1.376-.858 1.221.721-1.306-.985 1.121.859-1.22-1.1 1.008.985-1.121-1.203.882 1.101-1.007-1.291.749 1.202-.883-1.364.603 1.291-.747-1.421.453 1.364-.603-1.462.296 1.422-.452-1.486.136 1.462-.296-1.491-.024 1.485-.137-1.479-.185 1.491.025-1.451-.346 1.48.188-1.406-.5 1.451.345-1.343-.649 1.405.5z"/><circle cx="96.863" cy="63.63" r="1.587" opacity=".35" fill="#1d1a3a"/><path d="M97.838 62.917c0-.009.005-.017.005-.026a.49.49 0 1 0-.49.49c.041 0 .078-.014.116-.022a.305.305 0 0 0 .421-.283.31.31 0 0 0-.052-.159z" fill="#fff"/><path d="M55.833 62.127a2.43 2.43 0 0 1-2.886-1.635c-.047-.154-.288-.088-.241.066a2.685 2.685 0 0 0 3.193 1.81c.157-.039.09-.28-.066-.241z" fill="#67657b"/><path d="M56.059 61.746a2.012 2.012 0 0 1-1.996-1.889c-.008-.16-.258-.161-.25 0a2.267 2.267 0 0 0 2.246 2.139c.161 0 .161-.25 0-.25zm-.388.726a3.255 3.255 0 0 1-2.872.439c-.154-.048-.22.194-.066.241a3.5 3.5 0 0 0 3.065-.465c.131-.09.006-.307-.127-.215z" fill="#67657b"/><circle cx="58.733" cy="63.63" r="3.333" fill="#67657b"/><circle cx="58.733" cy="63.63" r="3.104" fill="#8e8d9c"/><path fill="#5f5d73" d="M56.129 62.192l1.342.65-1.172-.923 1.265.791-1.066-1.044 1.172.923-.946-1.153 1.065 1.044-.816-1.249.946 1.153-.677-1.329.816 1.249-.528-1.395.675 1.33-.374-1.443.528 1.394-.217-1.475.375 1.443-.056-1.49.216 1.475.106-1.488.055 1.491.266-1.468-.106 1.489.423-1.431-.266 1.468.575-1.377-.424 1.431.721-1.306-.576 1.376.858-1.221-.721 1.306.985-1.12-.858 1.219 1.099-1.007-.985 1.121 1.203-.883-1.1 1.007 1.29-.748-1.202.882 1.364-.603-1.291.747 1.421-.452-1.364.602 1.462-.295-1.422.452 1.486-.137-1.462.296 1.491.024-1.485.137 1.48.186-1.492-.026 1.451.345-1.48-.187 1.406.5-1.451-.344 1.343.648-1.405-.5 1.265.79-1.343-.649 1.172.923-1.265-.791 1.066 1.043-1.172-.922.946 1.152-1.065-1.044.816 1.249-.945-1.153.676 1.329-.816-1.249.529 1.395-.676-1.33.375 1.445-.529-1.396.217 1.476-.375-1.444.056 1.491-.216-1.476-.106 1.488-.055-1.491-.266 1.468.107-1.488-.424 1.43.267-1.468-.575 1.377.423-1.43-.721 1.305.576-1.376-.858 1.221.721-1.306-.984 1.121.858-1.22-1.1 1.008.985-1.121-1.203.882 1.1-1.007-1.29.749 1.203-.883-1.365.603 1.291-.747-1.421.453 1.365-.603-1.463.296 1.422-.452-1.485.136 1.462-.296-1.492-.024 1.486-.137-1.48-.185 1.491.025-1.451-.346 1.48.188-1.406-.5 1.451.345-1.342-.649 1.404.5z"/><circle cx="58.743" cy="63.63" r="1.587" opacity=".35" fill="#1d1a3a"/><path d="M59.719 62.917c0-.009.005-.017.005-.026a.49.49 0 1 0-.49.49c.041 0 .078-.014.116-.022a.305.305 0 0 0 .421-.283.301.301 0 0 0-.052-.159z" fill="#fff"/><path d="M118.646 54.729V42.405c0-23.315-19.08-42.798-42.392-42.399-22.642.388-40.941 18.928-40.941 41.661v31.896l7.349-4.796A82.292 82.292 0 0 1 85.926 55.41l32.72-.681z" fill="#ffe176"/><path d="M112.375 148.346a21.713 21.713 0 0 0-1.482-5.059 23.093 23.093 0 0 0-1.06-2.161 25.536 25.536 0 0 0-3.769-5.097 28.702 28.702 0 0 0-2.378-2.233c-2.633-2.212-5.745-4.051-9.206-5.407-3.216-1.26-6.73-2.101-10.436-2.44-.096-.009-.195-.012-.292-.021 0-.032-.011-.064-.013-.097.128-.225.207-.476.207-.73 0-.849-.688-1.458-1.5-1.5a51.934 51.934 0 0 0-.557-.03 4.977 4.977 0 0 1 .633-2.299c.608-1.121 1.594-2.491.766-3.797-.821-1.294-2.394-.815-3.58-.475-2.135.613-4.252 1.02-6.419.528a1.542 1.542 0 0 0-.562-.298c-1.613-.48-3.36.43-3.122 2.308.126.991.94 1.541 1.235 2.448.087.267.214 1.094.191 1.825h-.208c-.784 0-1.536.69-1.5 1.5a1.7 1.7 0 0 0 .043.304c-.04.135-.064.273-.068.412-3.478.373-6.787 1.172-9.823 2.361-3.461 1.357-6.574 3.195-9.207 5.409a28.776 28.776 0 0 0-2.375 2.23 25.479 25.479 0 0 0-3.769 5.097 23.093 23.093 0 0 0-1.06 2.161 21.692 21.692 0 0 0-1.483 5.064 21.093 21.093 0 0 0-.235 2.201 225.468 225.468 0 0 0 15.927 2.078c17.282 1.652 34.652 1.072 51.877-1.525 1.155-.174 2.309-.357 3.461-.55a20.734 20.734 0 0 0-.236-2.207z" fill="#9bc5bf"/><g fill="#e94941"><circle cx="99.452" cy="132.258" r=".72"/><circle cx="99.452" cy="146.659" r=".72"/><path d="M106.652 140.178a.72.72 0 0 0 .664-1.001.72.72 0 1 0-.664 1.001z"/><circle cx="77.851" cy="125.059" r=".72"/><circle cx="70.652" cy="132.258" r=".72"/><circle cx="85.051" cy="132.259" r=".72"/><path d="M70.652 118.578a.72.72 0 0 0 .72-.719.71.71 0 0 0-.364-.613c-.43.146-.789.41-1.044.769a.708.708 0 0 0 .688.563zm-7.201 20.161a.721.721 0 0 0-.663.439.722.722 0 0 0 .662 1.001.721.721 0 0 0 .663-1.001.717.717 0 0 0-.662-.439zm14.4 14.399c-.287 0-.53.17-.646.412.426 0 .852-.016 1.278-.019a.712.712 0 0 0-.632-.393z"/><circle cx="70.652" cy="146.658" r=".72"/><circle cx="85.051" cy="146.659" r=".72"/><path d="M92.252 140.178a.721.721 0 0 0 .663-1.001.72.72 0 1 0-.663 1.001zm-14.401 0a.72.72 0 0 0 .663-1.001.72.72 0 1 0-.663 1.001z"/><circle cx="56.251" cy="132.258" r=".72"/><path d="M41.851 147.378a.72.72 0 0 0 .72-.719.716.716 0 0 0-.459-.668c-.128.452-.239.909-.337 1.371.026.003.049.016.076.016z"/><circle cx="56.251" cy="146.658" r=".72"/><path d="M49.051 140.178a.72.72 0 0 0 .663-1.001.72.72 0 1 0-.663 1.001z"/><circle cx="92.252" cy="150.729" r=".635"/><circle cx="107.372" cy="148.562" r=".636"/><circle cx="80.525" cy="119.823" r=".635"/><circle cx="62.732" cy="149.834" r=".635"/><circle cx="64.171" cy="130.903" r=".635"/><circle cx="49.051" cy="148.562" r=".635"/><circle cx="55.638" cy="140.178" r=".635"/><circle cx="59.93" cy="135.727" r=".635"/><circle cx="73.522" cy="136.998" r=".635"/><circle cx="88.117" cy="136.362" r=".635"/><circle cx="97.669" cy="136.362" r=".635"/><circle cx="71.836" cy="126.414" r=".635"/><circle cx="70.667" cy="140.813" r=".635"/><circle cx="85.771" cy="140.813" r=".635"/><circle cx="100.807" cy="140.178" r=".635"/><circle cx="78.484" cy="147.927" r=".635"/><circle cx="92.252" cy="132.259" r=".635"/><circle cx="77.845" cy="132.259" r=".635"/><circle cx="86.407" cy="127.685" r=".635"/><circle cx="74.835" cy="121.093" r=".635"/><circle cx="46.46" cy="144.062" r=".635"/><circle cx="62.732" cy="145.334" r=".635"/><circle cx="92.252" cy="144.698" r=".635"/><circle cx="104.44" cy="145.334" r=".635"/><circle cx="109.95" cy="145.991" r=".635"/><circle cx="69.296" cy="152" r=".635"/><circle cx="58.2" cy="151.365" r=".635"/><circle cx="102.078" cy="150.468" r=".635"/><circle cx="85.052" cy="152" r=".635"/></g></svg>