<svg xmlns="http://www.w3.org/2000/svg" viewBox="0 0 160.942 160.942"><path d="M41.471 86.463c-4 0-7.667-3.433-7.667-7.667s3.667-7.667 7.667-7.667v15.334zm78 0c4 0 7.667-3.433 7.667-7.667s-3.667-7.667-7.667-7.667v15.334z" fill="#fcd0a3"/><path d="M115.691 155.73a21.662 21.662 0 0 0-1.481-5.059 22.609 22.609 0 0 0-1.06-2.161 25.53 25.53 0 0 0-3.769-5.096 28.534 28.534 0 0 0-2.378-2.233c-2.633-2.213-5.745-4.052-9.206-5.407-3.216-1.261-6.729-2.102-10.436-2.441a40.71 40.71 0 0 0-3.688-.174h-6.759c-1.248 0-2.477.064-3.688.174-3.706.339-7.22 1.181-10.435 2.441-3.462 1.355-6.574 3.195-9.207 5.408a28.631 28.631 0 0 0-2.376 2.23 25.529 25.529 0 0 0-3.77 5.098 23.203 23.203 0 0 0-1.06 2.16 21.752 21.752 0 0 0-1.482 5.064 21.122 21.122 0 0 0-.235 2.201 226.525 226.525 0 0 0 15.412 2.03l.514.049c17.282 1.651 34.652 1.071 51.878-1.526 1.154-.174 2.309-.357 3.462-.55a20.987 20.987 0 0 0-.236-2.208z" fill="#e6e1cd"/><g fill="#fcd0a3"><path d="M80.295 137.176a3.501 3.501 0 0 1-3.502-3.501V116.73a3.501 3.501 0 0 1 3.502-3.501 3.5 3.5 0 0 1 3.501 3.501v16.944a3.501 3.501 0 0 1-3.501 3.502z"/><path d="M80.295 120.633c-21.907 0-39.667-17.759-39.667-39.666v-34c0-21.908 17.76-39.667 39.667-39.667s39.666 17.759 39.666 39.667v34c0 21.907-17.758 39.666-39.666 39.666z"/><path d="M58.712 110.184c-5.893-7.366-7.638-16.079-7.842-25.324-.202-9.157-.265-17.485.294-26.664.544-8.916 2.318-17.641 6.815-25.004C64.164 23.063 75.304 13.509 85.967 7.71a39.89 39.89 0 0 0-5.672-.41c-21.907 0-39.667 17.759-39.667 39.666v34.001c0 18.021 12.022 33.226 28.482 38.057-3.945-2.296-7.495-5.212-10.398-8.84z" opacity=".16"/></g><path d="M76.609 133.167c-1.143.01-2.271.064-3.381.166-3.706.339-7.22 1.181-10.435 2.441-3.462 1.355-6.574 3.195-9.207 5.408a28.631 28.631 0 0 0-2.376 2.23 25.529 25.529 0 0 0-3.77 5.098 23.203 23.203 0 0 0-1.06 2.16 21.752 21.752 0 0 0-1.482 5.064 21.122 21.122 0 0 0-.235 2.201 226.525 226.525 0 0 0 15.412 2.03l.514.049c5.334.51 10.677.781 16.02.872v-27.719zm39.082 22.563a21.662 21.662 0 0 0-1.481-5.059 22.609 22.609 0 0 0-1.06-2.161 25.53 25.53 0 0 0-3.769-5.096 28.534 28.534 0 0 0-2.378-2.233c-2.633-2.213-5.745-4.052-9.206-5.407-3.216-1.261-6.729-2.102-10.436-2.441a40.802 40.802 0 0 0-3.503-.169v27.722a217.436 217.436 0 0 0 32.069-2.948 20.987 20.987 0 0 0-.236-2.208z" fill="#233842"/><path fill="#3d5561" d="M76.793 129.01v31.905l-5.208-19.68.69-2.225-4.166-5.851zm7.003 0v31.905l5.208-19.68-.689-2.225 4.167-5.851z"/><path d="M118.712 88.08c-.161-.191-6.399-4.132-15.222-4.121-6.361.008-14.06 6.78-21.875 5.563-8.651-1.349-17.619-5.58-24.562-5.563-8.473.021-15.177 3.813-15.177 6.22 0 9.991 4.732 19.262 13.534 24.722.389.241.904.108 1.227-.196a62.664 62.664 0 0 0 15.186 11.258c.687.365 1.305-.063 1.444-.693a32.94 32.94 0 0 0 7.368.425c2.42.132 4.872.001 7.367-.425.14.63.758 1.059 1.444.693a62.64 62.64 0 0 0 15.185-11.258c.322.305.838.438 1.227.196 8.802-5.46 11.879-14.746 13.027-24.671.046-.389.068-1.999-.173-2.15z" fill="#f5a251"/><g fill="#f5a251"><path d="M109.508 17.613a42.397 42.397 0 0 0-6.192-5.15 8.261 8.261 0 0 1-.842-.668c-.117-1.573.506-3.202.109-4.94-.169-.737-1.161-.962-1.672-.441-.313.319-.641.6-.979.861a8.227 8.227 0 0 1 .597-4.842c.175-.394.341-.795.498-1.207.341-.894-.765-1.465-1.469-1.129a69.628 69.628 0 0 1-12.506 4.558c-1.989.517-4.047.688-6.102.651a39.674 39.674 0 0 0-1.38-.001c-22.641.388-40.941 18.928-40.941 41.662v7.994c-.022.057-.064.089-.066.17-.059 2.429-1.129 4.668-3.33 5.694-1.267.591-.367 2.147.658 1.873a14.908 14.908 0 0 0 1.825-.624 13.93 13.93 0 0 1-1.768 2.805c-.73.896.158 2.043 1.212 1.57.439-.196.887-.389 1.34-.579 3.172-1.336 6.546-2.083 9.968-2.445 24.857-2.632 53.897-27.283 53.897-27.283a5.305 5.305 0 0 1 6.773 2.43l10.823 24.589 1.271-9.826c1.692-13.067-2.438-26.374-11.724-35.722z"/><path d="M115.161 44.861c-.751-4.946.788-13.13-3.961-14.375-3.835-1.005-4.364 1.75-8.762 5.629a5.298 5.298 0 0 1 6.688 2.456l10.823 24.589.012-.093c-1.426-6.734-3.755-11.313-4.8-18.206z" opacity=".25"/></g><path d="M64.304 101.262H98.12s-1.6 10.761-17.725 10.722c-14.628-.035-16.091-10.722-16.091-10.722z" fill="#fcd0a3"/><path d="M104.999 74.761a32.915 32.915 0 0 0-1.7-.237c-4.793-.514-10.717-.877-14.585 2.56-1.221 1.083-.765 2.567.83 2.924.612.137 1.25.078 1.875.018 5.537-.529 11.039-1.119 16.594-1.532 1.44-.107 3.082-.898 1.851-2.285-.929-1.048-3.58-1.237-4.865-1.448zm-50.393 0a32.76 32.76 0 0 1 1.7-.237c4.793-.514 10.716-.877 14.585 2.56 1.22 1.083.764 2.567-.83 2.924-.613.137-1.251.078-1.876.018-5.536-.529-11.038-1.119-16.593-1.532-1.44-.107-3.082-.898-1.852-2.285.929-1.048 3.582-1.237 4.866-1.448z" opacity=".29" fill="#fcd0a3"/><circle cx="98.12" cy="68.974" r="3.333" fill="#67657b"/><circle cx="98.12" cy="68.974" r="3.104" fill="#8e8d9c"/><path fill="#5f5d73" d="M95.516 67.536l1.343.65-1.172-.923 1.265.791-1.066-1.044 1.172.923-.946-1.154 1.065 1.044-.816-1.248.946 1.153-.677-1.329.816 1.248-.529-1.394.676 1.33-.375-1.444.529 1.395-.217-1.476.375 1.444-.056-1.491.216 1.476.105-1.488.056 1.491.266-1.468-.106 1.488.423-1.431-.267 1.468.576-1.376-.424 1.431.721-1.307-.576 1.376.858-1.22-.721 1.306.984-1.121-.858 1.22 1.101-1.007-.986 1.12 1.202-.883-1.099 1.008 1.29-.748-1.202.882 1.364-.603-1.291.747 1.421-.453-1.364.603 1.461-.296-1.421.452 1.485-.136-1.462.296 1.492.024-1.485.136 1.479.187-1.491-.026 1.451.345-1.48-.187 1.406.5-1.451-.345 1.343.649-1.406-.501 1.265.791-1.343-.649 1.173.922-1.264-.79 1.065 1.043-1.172-.922.946 1.152-1.065-1.044.816 1.248-.946-1.153.677 1.33-.817-1.249.53 1.394-.677-1.329.375 1.444-.528-1.395.216 1.476-.374-1.444.056 1.491-.216-1.476-.106 1.487-.055-1.49-.267 1.468.107-1.489-.423 1.431.267-1.468-.576 1.376.423-1.429-.72 1.305.576-1.376-.858 1.221.721-1.306-.984 1.121.857-1.22-1.099 1.007.985-1.12-1.203.882 1.1-1.007-1.291.748 1.203-.882-1.364.603 1.291-.747-1.422.452 1.366-.602-1.462.296 1.421-.452-1.486.136 1.462-.296-1.491-.025 1.485-.136-1.479-.186 1.491.025-1.451-.345 1.479.187-1.405-.5 1.451.346-1.343-.649 1.406.5z"/><circle cx="98.131" cy="68.974" r="1.587" opacity=".35" fill="#1d1a3a"/><path d="M99.107 68.26c0-.009.005-.017.005-.025a.49.49 0 1 0-.49.49c.041 0 .078-.014.115-.023a.305.305 0 0 0 .421-.282.304.304 0 0 0-.051-.16z" fill="#fff"/><circle cx="63.78" cy="68.974" r="3.333" fill="#67657b"/><circle cx="63.78" cy="68.974" r="3.104" fill="#8e8d9c"/><path fill="#5f5d73" d="M61.176 67.536l1.343.65-1.172-.923 1.265.791-1.066-1.044 1.172.923-.946-1.154 1.064 1.044-.816-1.248.946 1.153-.676-1.329.816 1.248-.528-1.394.675 1.33-.375-1.444.529 1.395-.217-1.476.375 1.444-.057-1.491.217 1.476.106-1.488.055 1.491.266-1.468-.107 1.488.424-1.431-.266 1.468.575-1.376-.424 1.431.721-1.307-.576 1.376.858-1.22-.722 1.306.986-1.121-.859 1.22 1.1-1.007-.985 1.12 1.203-.883-1.101 1.008 1.291-.748-1.202.882 1.363-.603-1.291.747 1.422-.453-1.364.603 1.462-.296-1.422.452 1.485-.136-1.462.296 1.491.024-1.485.136 1.481.187-1.492-.026 1.451.345-1.48-.187 1.405.5-1.451-.345 1.344.649-1.405-.501 1.264.791-1.343-.649 1.172.922-1.264-.79 1.065 1.043-1.172-.922.948 1.152-1.066-1.044.816 1.248-.946-1.153.677 1.33-.816-1.249.529 1.394-.677-1.329.375 1.444-.528-1.395.217 1.476-.374-1.444.055 1.491-.217-1.476-.105 1.487-.056-1.49-.265 1.468.106-1.489-.423 1.431.266-1.468-.575 1.376.424-1.429-.721 1.305.576-1.376-.858 1.221.721-1.306-.984 1.121.857-1.22-1.099 1.007.984-1.12-1.202.882 1.101-1.007-1.292.748 1.204-.882-1.365.603 1.291-.747-1.422.452 1.365-.602-1.462.296 1.422-.452-1.486.136 1.462-.296-1.491-.025 1.485-.136-1.48-.186 1.492.025-1.452-.345 1.48.187-1.405-.5 1.451.346-1.343-.649 1.405.5z"/><circle cx="63.791" cy="68.974" r="1.587" opacity=".35" fill="#1d1a3a"/><path d="M64.766 68.26c.001-.009.006-.017.006-.025a.49.49 0 1 0-.49.49c.041 0 .077-.014.115-.023a.306.306 0 0 0 .421-.282.296.296 0 0 0-.052-.16z" fill="#fff"/><path d="M106.908 61.099H89.333a5.845 5.845 0 0 0-5.838 5.838v1.065h-5.572v-1.065a5.845 5.845 0 0 0-5.838-5.838H54.511a5.845 5.845 0 0 0-5.838 5.838v4.074a5.845 5.845 0 0 0 5.838 5.838h17.574a5.845 5.845 0 0 0 5.838-5.838v-1.065h5.572v1.065a5.845 5.845 0 0 0 5.838 5.838h17.574a5.845 5.845 0 0 0 5.838-5.838v-4.074a5.844 5.844 0 0 0-5.837-5.838zm-30.985 9.912a3.843 3.843 0 0 1-3.838 3.838H54.511a3.843 3.843 0 0 1-3.838-3.838v-4.074a3.843 3.843 0 0 1 3.838-3.838h17.574a3.843 3.843 0 0 1 3.838 3.838v4.074zm34.823 0a3.843 3.843 0 0 1-3.838 3.838H89.333a3.843 3.843 0 0 1-3.838-3.838v-4.074a3.843 3.843 0 0 1 3.838-3.838h17.574a3.843 3.843 0 0 1 3.838 3.838v4.074z" fill="#3d5561"/></svg>