<svg xmlns="http://www.w3.org/2000/svg" viewBox="0 0 159.483 159.483"><path d="M40.741 82.296c-4 0-7.667-3.433-7.667-7.666 0-4.234 3.667-7.667 7.667-7.667v15.333zm78 0c4 0 7.667-3.433 7.667-7.666 0-4.234-3.667-7.667-7.667-7.667v15.333z" fill="#fcd0a3"/><g fill="#fcd0a3"><path d="M76.064 113.229h7.003v20.966h-7.003z"/><path d="M79.566 120.633c-21.907 0-39.667-17.759-39.667-39.666V46.966c0-21.907 17.76-39.667 39.667-39.667s39.666 17.759 39.666 39.667v34.001c0 21.907-17.759 39.666-39.666 39.666z"/><path d="M57.983 110.184c-5.893-7.366-7.638-16.08-7.842-25.324-.202-9.158-.265-17.485.294-26.664.544-8.917 2.318-17.641 6.815-25.004C63.434 23.063 74.574 13.509 85.237 7.71a39.89 39.89 0 0 0-5.672-.41c-21.907 0-39.667 17.759-39.667 39.667v34.001c0 18.021 12.022 33.226 28.481 38.056-3.943-2.297-7.494-5.212-10.396-8.84z" opacity=".16"/></g><path d="M82.9 131.7h-6.759a40.4 40.4 0 0 0-3.688.174h14.134a40.344 40.344 0 0 0-3.687-.174z" fill="#58b99b"/><path d="M114.917 154.271a21.727 21.727 0 0 0-1.482-5.059 22.609 22.609 0 0 0-1.06-2.161 25.53 25.53 0 0 0-3.769-5.096 28.534 28.534 0 0 0-2.378-2.233c-2.633-2.212-5.745-4.051-9.205-5.407-3.217-1.26-6.73-2.102-10.437-2.441H72.452c-3.706.339-7.22 1.181-10.435 2.441-3.462 1.356-6.574 3.195-9.207 5.409a28.642 28.642 0 0 0-2.376 2.231 25.561 25.561 0 0 0-3.77 5.097 23.211 23.211 0 0 0-1.059 2.161 21.706 21.706 0 0 0-1.483 5.064 21.122 21.122 0 0 0-.235 2.201 225.376 225.376 0 0 0 15.413 2.029l.514.049c17.282 1.652 34.652 1.072 51.878-1.526 1.154-.174 2.309-.357 3.462-.549a21.795 21.795 0 0 0-.237-2.21z" fill="#ffde67"/><path d="M97.024 134.314c-3.217-1.26-6.73-2.102-10.437-2.441H72.453c-3.706.339-7.22 1.181-10.435 2.441 11.667.089 23.338.089 35.006 0zm17.893 19.957c-18.288 2.753-36.739 3.453-55.1 1.858a250.495 250.495 0 0 1-15.695-1.853 21.122 21.122 0 0 0-.235 2.201 225.376 225.376 0 0 0 15.413 2.029l.515.049c17.281 1.652 34.651 1.072 51.877-1.526 1.154-.174 2.309-.357 3.462-.549a21.806 21.806 0 0 0-.237-2.209zm-55.084-11.886a532.82 532.82 0 0 0 48.773-.43 28.534 28.534 0 0 0-2.378-2.233 690.702 690.702 0 0 1-46.393.237l-.515-.015a743.7 743.7 0 0 1-6.511-.221 28.642 28.642 0 0 0-2.376 2.231c2.961.159 5.922.299 8.884.411l.516.02zm-.01 8.085c17.865 1.188 35.795.718 53.611-1.257a22.609 22.609 0 0 0-1.06-2.161c-17.473 1.635-35.038 2.004-52.549.993l-.515-.029c-4.22-.246-8.435-.573-12.646-.964a23.211 23.211 0 0 0-1.059 2.161 322.941 322.941 0 0 0 14.218 1.257z" fill="#1d1a3a"/><path d="M71.412 131.663a2.467 2.467 0 0 1 2.468-2.467l1.518.258c2.759.47 5.577.47 8.335 0l1.519-.258a2.468 2.468 0 0 1 2.467 2.467c-.001 6.908-16.307 6.533-16.307 0z" fill="#1d1a3a"/><g fill="#152a35"><path d="M108.778 17.613a42.323 42.323 0 0 0-6.192-5.15 8.261 8.261 0 0 1-.842-.668c-.117-1.572.506-3.202.109-4.939-.169-.738-1.161-.963-1.672-.441-.313.319-.641.6-.979.861a8.227 8.227 0 0 1 .597-4.842c.175-.393.341-.795.498-1.206.341-.894-.765-1.466-1.469-1.129a69.628 69.628 0 0 1-12.506 4.558c-1.989.517-4.047.688-6.102.651a39.674 39.674 0 0 0-1.38-.001c-22.641.386-40.94 18.926-40.94 41.66v7.994c-.022.057-.064.089-.066.17-.059 2.428-1.129 4.667-3.33 5.694-1.267.591-.367 2.147.658 1.873.628-.168 1.235-.38 1.825-.624a13.901 13.901 0 0 1-1.768 2.805c-.73.895.158 2.043 1.212 1.57.439-.197.887-.389 1.34-.579 3.172-1.336 6.546-2.083 9.968-2.445 24.857-2.632 53.897-27.284 53.897-27.284a5.305 5.305 0 0 1 6.773 2.431l10.823 24.589 1.271-9.827c1.691-13.067-2.438-26.373-11.725-35.721z"/><path d="M118.557 49.923c-.127-5.083.147-10.141-1.498-15.048-2.512-7.488-9.043-11.359-16.905-9.165-7.078 1.976-12.788 7.257-18.281 11.853-4.634 3.876-9.344 7.676-14.285 11.156-9.501 6.69-19.805 11.867-31.135 14.329-.363.632-.758 1.25-1.233 1.832-.73.895.158 2.043 1.212 1.57.439-.197.887-.389 1.339-.579 3.173-1.336 6.547-2.083 9.969-2.445 24.857-2.632 53.897-27.284 53.897-27.284a5.305 5.305 0 0 1 6.773 2.431l10.823 24.589.525-4.057c-.811-2.863-1.121-5.999-1.201-9.182z" opacity=".21"/></g><path d="M60.723 101.278s17.192 16.875 37.685 0" fill="none" stroke="#233842" stroke-width=".75" stroke-linecap="round" stroke-linejoin="round" stroke-miterlimit="10"/><circle cx="97.39" cy="68.974" r="3.333" fill="#67657b"/><circle cx="97.39" cy="68.974" r="3.104" fill="#8e8d9c"/><path fill="#5f5d73" d="M94.786 67.536l1.343.649-1.172-.922 1.265.791-1.066-1.044 1.172.923-.946-1.153 1.065 1.044-.816-1.249.946 1.153-.676-1.329.815 1.249-.528-1.395.675 1.329-.375-1.443.529 1.395-.217-1.476.375 1.444-.056-1.491.216 1.476.106-1.488.055 1.491.266-1.468-.106 1.488.423-1.431-.266 1.468.575-1.376-.424 1.43.721-1.306-.575 1.376.857-1.22-.721 1.306.985-1.121-.859 1.22 1.101-1.007-.986 1.12 1.203-.883-1.1 1.008 1.29-.748-1.202.882 1.364-.603-1.291.747 1.421-.453-1.364.603 1.462-.296-1.422.452 1.485-.136-1.462.296 1.492.025-1.485.135 1.48.186-1.492-.025 1.452.345-1.481-.186 1.406.499-1.451-.345 1.343.649-1.405-.501 1.264.791-1.342-.649 1.172.922-1.264-.791 1.065 1.044-1.172-.923.947 1.153-1.066-1.044.817 1.248-.947-1.153.677 1.33-.816-1.249.529 1.395-.677-1.33.375 1.444-.528-1.395.217 1.476-.374-1.444.055 1.49-.216-1.475-.106 1.488-.055-1.491-.266 1.468.106-1.488-.423 1.43.267-1.468-.575 1.377.423-1.43-.721 1.306.576-1.377-.857 1.221.72-1.306-.984 1.12.857-1.22-1.099 1.008.985-1.12-1.203.882 1.101-1.007-1.291.748 1.203-.882-1.365.603 1.291-.747-1.421.453 1.365-.604-1.462.297 1.421-.453-1.486.137 1.462-.296-1.491-.025 1.485-.136-1.479-.186 1.491.025-1.451-.344 1.479.186-1.405-.5 1.451.346-1.342-.649 1.405.5z"/><circle cx="97.401" cy="68.974" r="1.587" opacity=".35" fill="#1d1a3a"/><path d="M98.377 68.26c0-.009.005-.017.005-.026a.49.49 0 1 0-.49.49c.041 0 .078-.014.115-.023a.304.304 0 0 0 .421-.282.303.303 0 0 0-.051-.159z" fill="#fff"/><circle cx="63.05" cy="68.974" r="3.333" fill="#67657b"/><circle cx="63.05" cy="68.974" r="3.104" fill="#8e8d9c"/><path fill="#5f5d73" d="M60.446 67.536l1.343.649-1.172-.922 1.265.791-1.065-1.044 1.171.923-.946-1.153 1.065 1.044-.817-1.249.946 1.153-.675-1.329.815 1.249-.528-1.395.676 1.329-.375-1.443.528 1.395-.217-1.476.375 1.444-.057-1.491.217 1.476.106-1.488.055 1.491.266-1.468-.106 1.488.423-1.431-.266 1.468.575-1.376-.424 1.43.721-1.306-.575 1.376.857-1.22-.722 1.306.986-1.121-.859 1.22 1.1-1.007-.984 1.12 1.202-.883-1.101 1.008 1.291-.748-1.202.882 1.363-.603-1.291.747 1.422-.453-1.364.603 1.462-.296-1.422.452 1.485-.136-1.462.296 1.492.025-1.486.135 1.481.186-1.491-.025 1.451.345-1.481-.186 1.405.499-1.451-.345 1.344.649-1.405-.501 1.264.791-1.342-.649 1.172.922-1.265-.791 1.065 1.044-1.172-.923.948 1.153-1.066-1.044.817 1.248-.947-1.153.677 1.33-.816-1.249.529 1.395-.677-1.33.375 1.444-.528-1.395.217 1.476-.374-1.444.055 1.49-.216-1.475L63 71.948l-.056-1.491-.265 1.468.106-1.488-.423 1.43.266-1.468-.575 1.377.424-1.43-.721 1.306.576-1.377-.858 1.221.721-1.306-.984 1.12.857-1.22-1.099 1.008.984-1.12-1.202.882 1.101-1.007-1.291.748 1.203-.882-1.364.603 1.291-.747-1.422.453 1.364-.604-1.462.297 1.422-.453-1.485.137 1.461-.296-1.491-.025 1.486-.136-1.481-.186 1.492.025-1.452-.344 1.481.186-1.406-.5 1.452.346-1.344-.649 1.405.5z"/><circle cx="63.062" cy="68.974" r="1.587" opacity=".35" fill="#1d1a3a"/><path d="M64.036 68.26c.001-.009.006-.017.006-.026a.49.49 0 1 0-.49.49c.041 0 .077-.014.115-.023a.305.305 0 0 0 .421-.282.287.287 0 0 0-.052-.159z" fill="#fff"/><path d="M104.27 74.761a32.76 32.76 0 0 0-1.7-.237c-4.793-.514-10.717-.877-14.585 2.559-1.221 1.084-.765 2.567.83 2.924.612.137 1.25.078 1.875.018 5.537-.529 11.039-1.12 16.594-1.533 1.44-.107 3.082-.898 1.851-2.285-.93-1.046-3.581-1.235-4.865-1.446zm-50.394 0a32.76 32.76 0 0 1 1.7-.237c4.793-.514 10.716-.877 14.585 2.559 1.22 1.084.764 2.567-.83 2.924-.613.137-1.251.078-1.876.018-5.536-.529-11.038-1.12-16.593-1.533-1.44-.107-3.082-.898-1.852-2.285.93-1.046 3.582-1.235 4.866-1.446z" opacity=".29" fill="#fcd0a3"/><path d="M80.878 118.407a1.183 1.183 0 0 1-2.049.049l-1.241-2.035-1.24-2.035a1.183 1.183 0 0 1 .981-1.799l2.383-.057 2.383-.058a1.184 1.184 0 0 1 1.067 1.75l-1.142 2.092-1.142 2.093z" fill="#152a35"/></svg>